<svg version="1.1" viewBox="0.0 0.0 1600.0 1600.0" fill="none" stroke="none" stroke-linecap="square" stroke-miterlimit="10" xmlns:xlink="http://www.w3.org/1999/xlink" xmlns="http://www.w3.org/2000/svg"><clipPath id="g3e2fe19d814_0_0.0"><path d="m0 0l1600.0 0l0 1600.0l-1600.0 0l0 -1600.0z" clip-rule="nonzero"/></clipPath><g clip-path="url(#g3e2fe19d814_0_0.0)"><path fill="#af002b" d="m0 0l1600.0 0l0 1600.0l-1600.0 0z" fill-rule="evenodd"/><path fill="#000000" fill-opacity="0.0" d="m400.0 1200.0l800.0 0l0 144.0l-800.0 0z" fill-rule="evenodd"/><path fill="#9eb5ff" d="m689.79694 1218.2412l68.40625 0l-34.203125 59.28125l-34.203125 -59.28125zm75.99994 0l68.40625 0l-34.203125 59.28125l-34.203125 -59.28125zm76.0 0l68.40625 0l-34.203125 59.28125l-34.203125 -59.28125z" fill-rule="nonzero"/><path fill="#000000" fill-opacity="0.0" d="m400.0 400.0l800.0 0l0 800.0l-800.0 0z" fill-rule="evenodd"/><path fill="#9eb5ff" d="m477.71768 739.2l0 -92.453125l31.421875 0l16.59372 49.390625l0.25 0l16.59375 -49.390625l31.40625 0l0 92.453125l-25.328125 0l0 -53.203125l-0.25 0l-11.15625 33.578125l-22.796875 0l-11.1405945 -33.578125l-0.25 0l0 53.203125l-25.34375 0zm126.910675 1.265625q-9.234375 0 -14.75 -5.5q-5.515625 -5.515625 -5.515625 -14.765625q0 -10.890625 8.609375 -16.84375q8.625 -5.953125 24.328125 -5.953125l6.84375 0q0 -3.171875 -0.578125 -4.8125q-0.5625 -1.640625 -2.21875 -2.203125q-1.640625 -0.578125 -4.8125 -0.578125q-6.203125 0 -13.546875 1.265625q-7.34375 1.265625 -13.546875 3.421875l-2.546875 -17.734375q6.84375 -2.28125 15.578125 -3.484375q8.75 -1.203125 17.484375 -1.203125q10.640625 0 16.96875 2.46875q6.34375 2.46875 9.1875 8.046875q2.84375 5.5625 2.84375 14.8125l0 41.796875l-23.546875 0l-0.265625 -7.59375l-0.25 0q-3.671875 4.171875 -9.0 6.515625q-5.3125 2.34375 -11.265625 2.34375zm9.625 -17.09375q3.046875 0 5.265625 -0.953125q2.21875 -0.953125 3.421875 -2.65625q1.203125 -1.71875 1.203125 -4.0l0 -5.0625l-3.046875 0q-7.46875 0 -10.953125 1.65625q-3.484375 1.640625 -3.484375 5.3125q0 2.78125 1.953125 4.25q1.96875 1.453125 5.640625 1.453125zm46.999207 15.828125l0 -65.859375l23.8125 0l0.25 11.390625l0.25 0q3.796875 -4.171875 8.171875 -7.015625q4.375 -2.859375 9.3125 -4.25q4.9375 -1.390625 10.125 -1.390625l0 20.265625q-7.34375 0 -13.484375 2.53125q-6.140625 2.53125 -9.75 6.84375q-3.609375 4.296875 -3.609375 9.625l0 27.859375l-25.078125 0zm60.795044 0l0 -92.453125l24.828125 0l0 51.296875l0.25 0l16.71875 -24.703125l28.5 0l-24.703125 31.65625l25.328125 34.203125l-28.5 0l-17.34375 -27.234375l-0.25 0l0 27.234375l-24.828125 0zm95.87378 1.265625q-12.796875 0 -19.640625 -8.796875q-6.828125 -8.8125 -6.828125 -25.40625q0 -16.578125 6.828125 -25.375q6.84375 -8.8125 19.640625 -8.8125q5.953125 0 10.375 2.03125q4.4375 2.015625 9.0 6.828125l0.25 0l0 -34.1875l24.828125 0l0 92.453125l-23.546875 0l-0.265625 -7.59375l-0.25 0q-4.6875 4.6875 -9.5 6.78125q-4.8125 2.078125 -10.890625 2.078125zm9.0 -19.0q3.15625 0 5.5625 -1.265625q2.40625 -1.265625 3.734375 -3.546875q1.328125 -2.28125 1.328125 -5.3125l0 -10.140625q0 -3.03125 -1.328125 -5.3125q-1.328125 -2.28125 -3.734375 -3.546875q-2.40625 -1.265625 -5.5625 -1.265625q-5.453125 0 -8.3125 3.859375q-2.84375 3.859375 -2.84375 11.328125q0 7.359375 2.84375 11.28125q2.859375 3.921875 8.3125 3.921875zm81.186646 19.0q-17.234375 0 -26.359375 -8.734375q-9.109375 -8.75 -9.109375 -25.46875q0 -16.71875 9.109375 -25.453125q9.125 -8.734375 26.359375 -8.734375q17.34375 0 26.390625 8.734375q9.0625 8.734375 9.0625 25.453125q0 16.71875 -9.0625 25.46875q-9.046875 8.734375 -26.390625 8.734375zm0 -17.734375q5.5625 0 8.09375 -3.984375q2.53125 -3.984375 2.53125 -12.484375q0 -8.609375 -2.53125 -12.53125q-2.53125 -3.921875 -8.09375 -3.921875q-5.453125 0 -8.046875 3.921875q-2.59375 3.921875 -2.59375 12.53125q0 8.5 2.59375 12.484375q2.59375 3.984375 8.046875 3.984375zm54.836792 16.46875l-15.203125 -65.859375l24.578125 0l5.0625 44.328125l0.25 0l5.828125 -44.328125l29.890625 0l5.828125 44.328125l0.25 0l5.0625 -44.328125l24.578125 0l-15.203125 65.859375l-29.765625 0l-5.5625 -44.328125l-0.265625 0l-5.5625 44.328125l-29.765625 0zm94.36145 0l0 -65.859375l23.546875 0l0.265625 7.59375l0.25 0q4.4375 -4.6875 9.375 -6.765625q4.9375 -2.09375 11.515625 -2.09375q11.53125 0 16.84375 6.328125q5.328125 6.328125 5.328125 20.265625l0 40.53125l-24.828125 0l0 -35.46875q0 -6.203125 -1.71875 -8.796875q-1.703125 -2.59375 -5.75 -2.59375q-2.921875 0 -5.203125 1.140625q-2.265625 1.140625 -3.53125 3.109375q-1.265625 1.953125 -1.265625 4.609375l0 38.0l-24.828125 0z" fill-rule="nonzero"/><path fill="#9eb5ff" d="m433.13303 951.99994l0 -70.921875l-26.203125 0l0 -21.53125l78.515625 0l0 21.53125l-26.21875 0l0 70.921875l-26.09375 0zm49.533478 0l0 -65.859375l23.8125 0l0.25 11.390625l0.25 0q3.796875 -4.171875 8.171875 -7.015625q4.375 -2.859375 9.3125 -4.25q4.9375 -1.390625 10.125 -1.390625l0 20.265625q-7.34375 0 -13.484375 2.53125q-6.140625 2.53125 -9.75 6.84375q-3.609375 4.296875 -3.609375 9.625l0 27.859375l-25.078125 0zm76.36481 1.265625q-9.234375 0 -14.75 -5.5q-5.515625 -5.515625 -5.515625 -14.765625q0 -10.890625 8.609375 -16.84375q8.625 -5.953125 24.328125 -5.953125l6.84375 0q0 -3.171875 -0.578125 -4.8125q-0.5625 -1.640625 -2.21875 -2.203125q-1.640625 -0.578125 -4.8125 -0.578125q-6.203125 0 -13.546875 1.265625q-7.34375 1.265625 -13.546875 3.421875l-2.546875 -17.734375q6.84375 -2.28125 15.578125 -3.484375q8.75 -1.203125 17.484375 -1.203125q10.640625 0 16.96875 2.46875q6.34375 2.46875 9.1875 8.046875q2.84375 5.5625 2.84375 14.8125l0 41.796875l-23.546875 0l-0.265625 -7.59375l-0.25 0q-3.671875 4.171875 -9.0 6.515625q-5.3125 2.34375 -11.265625 2.34375zm9.625 -17.09375q3.046875 0 5.265625 -0.953125q2.21875 -0.953125 3.421875 -2.65625q1.203125 -1.71875 1.203125 -4.0l0 -5.0625l-3.046875 0q-7.46875 0 -10.953125 1.65625q-3.484375 1.640625 -3.484375 5.3125q0 2.78125 1.953125 4.25q1.96875 1.453125 5.640625 1.453125zm46.999268 15.828125l0 -65.859375l23.546875 0l0.265625 7.59375l0.25 0q4.4375 -4.6875 9.375 -6.765625q4.9375 -2.09375 11.515625 -2.09375q11.53125 0 16.84375 6.328125q5.328125 6.328125 5.328125 20.265625l0 40.53125l-24.828125 0l0 -35.46875q0 -6.203125 -1.71875 -8.796875q-1.703125 -2.59375 -5.75 -2.59375q-2.921875 0 -5.203125 1.140625q-2.265625 1.140625 -3.53125 3.109375q-1.265625 1.953125 -1.265625 4.609375l0 38.0l-24.828125 0zm105.50726 1.265625q-4.4375 0 -9.828125 -0.640625q-5.375 -0.625 -10.453125 -1.703125q-5.0625 -1.078125 -8.734375 -2.34375l2.53125 -17.734375q6.96875 2.40625 12.609375 3.546875q5.640625 1.140625 11.078125 1.140625q4.3125 0 5.890625 -0.8125q1.578125 -0.828125 1.578125 -2.859375q0 -1.015625 -0.5 -1.703125q-0.5 -0.703125 -1.96875 -1.203125q-1.453125 -0.515625 -4.359375 -1.140625q-9.25 -2.28125 -15.328125 -5.375q-6.078125 -3.109375 -9.0625 -7.421875q-2.96875 -4.3125 -2.96875 -9.875q0 -10.015625 7.46875 -15.140625q7.46875 -5.125 22.046875 -5.125q6.328125 0 13.546875 1.015625q7.21875 1.015625 14.1875 2.90625l-2.53125 17.734375q-6.71875 -2.15625 -11.921875 -3.03125q-5.1875 -0.890625 -9.875 -0.890625q-4.046875 0 -5.828125 0.703125q-1.765625 0.6875 -1.765625 2.453125q0 1.015625 0.625 1.78125q0.640625 0.75 2.15625 1.328125q1.53125 0.5625 4.1875 1.203125q6.84375 1.515625 11.96875 3.734375q5.125 2.21875 8.484375 4.9375q3.359375 2.71875 5.0625 6.140625q1.71875 3.421875 1.71875 7.484375q0 6.203125 -3.75 10.953125q-3.734375 4.75 -10.515625 7.34375q-6.765625 2.59375 -15.75 2.59375zm49.508545 -1.265625l0 -45.59375l-14.046875 0l0 -17.734375l14.046875 0l0 -6.328125q0 -13.5625 7.09375 -20.71875q7.09375 -7.15625 20.53125 -7.15625q3.40625 0 7.515625 0.453125q4.125 0.4375 7.796875 1.453125l-2.53125 18.359375q-4.5625 -1.265625 -8.359375 -1.265625q-3.921875 0 -5.453125 1.84375q-1.515625 1.828125 -1.515625 7.03125l0 6.328125l17.234375 0l0 17.734375l-17.234375 0l0 45.59375l-25.078125 0zm81.327515 1.265625q-17.234375 0 -26.359375 -8.734375q-9.109375 -8.75 -9.109375 -25.46875q0 -16.71875 9.109375 -25.453125q9.125 -8.734375 26.359375 -8.734375q17.34375 0 26.390625 8.734375q9.0625 8.734375 9.0625 25.453125q0 16.71875 -9.0625 25.46875q-9.046875 8.734375 -26.390625 8.734375zm0 -17.734375q5.5625 0 8.09375 -3.984375q2.53125 -3.984375 2.53125 -12.484375q0 -8.609375 -2.53125 -12.53125q-2.53125 -3.921875 -8.09375 -3.921875q-5.453125 0 -8.046875 3.921875q-2.59375 3.921875 -2.59375 12.53125q0 8.5 2.59375 12.484375q2.59375 3.984375 8.046875 3.984375zm45.720093 16.46875l0 -65.859375l23.8125 0l0.25 11.390625l0.25 0q3.796875 -4.171875 8.171875 -7.015625q4.375 -2.859375 9.3125 -4.25q4.9375 -1.390625 10.125 -1.390625l0 20.265625q-7.34375 0 -13.484375 2.53125q-6.140625 2.53125 -9.75 6.84375q-3.609375 4.296875 -3.609375 9.625l0 27.859375l-25.078125 0zm60.795044 0l0 -65.859375l23.046875 0l0.25 7.59375l0.25 0q3.9375 -4.6875 8.234375 -6.765625q4.3125 -2.09375 10.015625 -2.09375q5.953125 0 9.9375 2.21875q3.984375 2.21875 6.140625 6.640625l0.25 0q4.4375 -4.6875 9.25 -6.765625q4.8125 -2.09375 11.015625 -2.09375q10.140625 0 14.625 5.390625q4.5 5.375 4.5 17.40625l0 44.328125l-24.3125 0l0 -38.0q0 -4.6875 -1.203125 -6.765625q-1.203125 -2.09375 -3.984375 -2.09375q-3.171875 0 -5.140625 2.46875q-1.953125 2.46875 -1.953125 6.390625l0 38.0l-24.328125 0l0 -38.0q0 -4.6875 -1.203125 -6.765625q-1.203125 -2.09375 -3.984375 -2.09375q-2.03125 0 -3.671875 1.140625q-1.640625 1.140625 -2.53125 3.109375q-0.890625 1.953125 -0.890625 4.609375l0 38.0l-24.3125 0zm145.65479 1.265625q-19.0 0 -29.140625 -8.859375q-10.125 -8.875 -10.125 -25.34375q0 -15.953125 9.109375 -25.0625q9.125 -9.125 25.078125 -9.125q15.59375 0 24.265625 8.671875q8.671875 8.671875 8.671875 24.25q0 2.28125 -0.125 5.078125q-0.125 2.78125 -0.375 3.796875l-52.6875 0l0 -14.5625l33.046875 0l-2.90625 4.421875q0 -8.234375 -2.34375 -12.03125q-2.34375 -3.796875 -7.546875 -3.796875q-5.0625 0 -7.46875 3.796875q-2.40625 3.796875 -2.40625 12.03125l0 7.609375q0 6.078125 3.296875 8.734375q3.296875 2.65625 10.640625 2.65625q5.4375 0 11.765625 -1.0q6.34375 -1.015625 10.78125 -2.546875l2.53125 17.734375q-4.4375 1.640625 -10.96875 2.59375q-6.515625 0.953125 -13.09375 0.953125z" fill-rule="nonzero"/><path fill="#9eb5ff" d="m1142.1656 951.99994l0 -65.859375l23.8125 0l0.25 11.390625l0.25 0q3.796875 -4.171875 8.171875 -7.015625q4.375 -2.859375 9.3125 -4.25q4.9375 -1.390625 10.125 -1.390625l0 20.265625q-7.34375 0 -13.484375 2.53125q-6.140625 2.53125 -9.75 6.84375q-3.609375 4.296875 -3.609375 9.625l0 27.859375l-25.078125 0z" fill-rule="nonzero"/><path fill="#000000" fill-opacity="0.0" d="m400.00058 256.00098l800.0 0l0 144.0l-800.0 0z" fill-rule="evenodd"/></g></svg>